<svg height="597pt" viewBox="-48 -18 597 597.33331" width="597pt" xmlns="http://www.w3.org/2000/svg"><path d="m-1.832031 480h500v40h-500zm0 0"/><path d="m-1.832031 100h500v-100h-500zm380-80c16.566406 0 30 13.433594 30 30s-13.433594 30-30 30c-16.570313 0-30-13.433594-30-30s13.429687-30 30-30zm-130-10c22.089843 0 40 17.910156 40 40s-17.910157 40-40 40c-22.089844 0-40-17.910156-40-40s17.910156-40 40-40zm-130 10c16.566406 0 30 13.433594 30 30s-13.433594 30-30 30c-16.570313 0-30-13.433594-30-30s13.429687-30 30-30zm0 0"/><path d="m128.167969 50c0 5.523438-4.480469 10-10 10-5.523438 0-10-4.476562-10-10s4.476562-10 10-10c5.519531 0 10 4.476562 10 10zm0 0"/><path d="m268.167969 50c0 11.046875-8.957031 20-20 20-11.046875 0-20-8.953125-20-20s8.953125-20 20-20c11.042969 0 20 8.953125 20 20zm0 0"/><path d="m19.835938 540h456.671874v20h-456.671874zm0 0"/><path d="m388.167969 50c0 5.523438-4.480469 10-10 10-5.523438 0-10-4.476562-10-10s4.476562-10 10-10c5.519531 0 10 4.476562 10 10zm0 0"/><path d="m218.167969 180h60v40h-60zm0 0"/><path d="m338.167969 430c-.039063 10.855469-3.644531 21.398438-10.261719 30h130.261719v-280h-160v10h110v20h-110v20c0 5.523438-4.480469 10-10 10h-30v10h-20v-10h-30c-5.523438 0-10-4.476562-10-10v-50h-160v280h130.257812c-6.617187-8.601562-10.21875-19.144531-10.257812-30v-80c0-5.523438 4.476562-10 10-10h180c16.566406 0 30 13.433594 30 30v20c0 16.566406-13.433594 30-30 30h-10zm-80-100h-20v-20h20zm0-40h-20v-20h20zm0 0"/><path d="m38.167969 120h420v40h-420zm0 0"/><path d="m358.167969 390v-20c0-5.523438-4.480469-10-10-10h-10v40h10c5.519531 0 10-4.476562 10-10zm0 0"/><path d="m208.167969 460h80c16.566406 0 30-13.433594 30-30v-70h-140v70c0 16.566406 13.429687 30 30 30zm0 0"/></svg>